<svg width="180" height="38" viewBox="0 0 180 38" fill="none" xmlns="http://www.w3.org/2000/svg">
<path d="M29.1807 4H28.8134L28.3796 4.09314L27.6537 4.43656L26.0312 5.51048L24.4492 6.62806L23.1275 7.70199L20.3511 10.1089L2.41703 8.73516L0.236328 10.1089L15.527 14.9226L13.6037 17.2421L11.7238 19.4336L10.2286 21.1537L7.54183 24.6345H1.81836L0.87838 25.6647L5.83262 28.415L6.55852 29.1892L8.77678 33.4005L9.71671 32.3702L9.80351 26.6542L12.1953 24.7189L14.7143 22.702L17.2334 20.5076L19.4979 18.5751L24.1513 34L25.4759 31.6804L24.2815 13.6333L25.3487 12.5128L26.3725 11.3108L27.2256 10.1089L28.4432 8.61001L28.796 8.09488L29.3889 7.25669L29.6926 6.77358L29.9645 6.27591L30.0918 5.95286L30.2363 5.6269V5.24273V4.8702L30.1553 4.59954L30.0426 4.30851L29.7881 4.11351L29.5336 4H29.1807Z" fill="url(#paint0_linear_4186_6910)"/>
<path d="M46.5563 30V12.03H39.5663V8.85H57.4163V12.03H50.4263V30H46.5563ZM57.4768 30V18.72C57.4768 18.08 57.4568 17.43 57.4168 16.77C57.3968 16.11 57.3468 15.47 57.2668 14.85H60.8968L61.3168 18.99H60.7168C60.9168 17.99 61.2468 17.16 61.7068 16.5C62.1868 15.84 62.7668 15.35 63.4468 15.03C64.1268 14.71 64.8668 14.55 65.6668 14.55C66.0268 14.55 66.3168 14.57 66.5368 14.61C66.7568 14.63 66.9768 14.68 67.1968 14.76L67.1668 18.06C66.7868 17.9 66.4568 17.8 66.1768 17.76C65.9168 17.72 65.5868 17.7 65.1868 17.7C64.3268 17.7 63.5968 17.88 62.9968 18.24C62.4168 18.6 61.9768 19.1 61.6768 19.74C61.3968 20.38 61.2568 21.11 61.2568 21.93V30H57.4768ZM74.9877 30.3C73.6677 30.3 72.5077 29.99 71.5077 29.37C70.5077 28.73 69.7277 27.82 69.1677 26.64C68.6077 25.46 68.3277 24.05 68.3277 22.41C68.3277 20.77 68.6077 19.37 69.1677 18.21C69.7277 17.03 70.5077 16.13 71.5077 15.51C72.5077 14.87 73.6677 14.55 74.9877 14.55C76.2677 14.55 77.3877 14.87 78.3477 15.51C79.3277 16.13 79.9777 16.97 80.2977 18.03H79.9677L80.2977 14.85H83.8977C83.8377 15.47 83.7777 16.1 83.7177 16.74C83.6777 17.38 83.6577 18.01 83.6577 18.63V30H79.9377L79.9077 26.88H80.2677C79.9477 27.92 79.2977 28.75 78.3177 29.37C77.3377 29.99 76.2277 30.3 74.9877 30.3ZM76.0377 27.42C77.2177 27.42 78.1677 27.01 78.8877 26.19C79.6077 25.35 79.9677 24.09 79.9677 22.41C79.9677 20.73 79.6077 19.48 78.8877 18.66C78.1677 17.84 77.2177 17.43 76.0377 17.43C74.8577 17.43 73.9077 17.84 73.1877 18.66C72.4677 19.48 72.1077 20.73 72.1077 22.41C72.1077 24.09 72.4577 25.35 73.1577 26.19C73.8777 27.01 74.8377 27.42 76.0377 27.42ZM92.0347 30L85.4947 14.85H89.4847L94.2247 26.7H93.2947L98.1547 14.85H101.905L95.3347 30H92.0347ZM110.94 30.3C108.4 30.3 106.41 29.6 104.97 28.2C103.53 26.8 102.81 24.88 102.81 22.44C102.81 20.86 103.12 19.48 103.74 18.3C104.36 17.12 105.22 16.2 106.32 15.54C107.44 14.88 108.74 14.55 110.22 14.55C111.68 14.55 112.9 14.86 113.88 15.48C114.86 16.1 115.6 16.97 116.1 18.09C116.62 19.21 116.88 20.52 116.88 22.02V23.01H105.84V21.03H114.21L113.7 21.45C113.7 20.05 113.4 18.98 112.8 18.24C112.22 17.5 111.37 17.13 110.25 17.13C109.01 17.13 108.05 17.57 107.37 18.45C106.71 19.33 106.38 20.56 106.38 22.14V22.53C106.38 24.17 106.78 25.4 107.58 26.22C108.4 27.02 109.55 27.42 111.03 27.42C111.89 27.42 112.69 27.31 113.43 27.09C114.19 26.85 114.91 26.47 115.59 25.95L116.7 28.47C115.98 29.05 115.12 29.5 114.12 29.82C113.12 30.14 112.06 30.3 110.94 30.3ZM120.056 30V7.92H123.806V30H120.056ZM135.198 30.3C132.658 30.3 130.668 29.6 129.228 28.2C127.788 26.8 127.068 24.88 127.068 22.44C127.068 20.86 127.378 19.48 127.998 18.3C128.618 17.12 129.478 16.2 130.578 15.54C131.698 14.88 132.998 14.55 134.478 14.55C135.938 14.55 137.158 14.86 138.138 15.48C139.118 16.1 139.858 16.97 140.358 18.09C140.878 19.21 141.138 20.52 141.138 22.02V23.01H130.098V21.03H138.468L137.958 21.45C137.958 20.05 137.658 18.98 137.058 18.24C136.478 17.5 135.628 17.13 134.508 17.13C133.268 17.13 132.308 17.57 131.628 18.45C130.968 19.33 130.638 20.56 130.638 22.14V22.53C130.638 24.17 131.038 25.4 131.838 26.22C132.658 27.02 133.808 27.42 135.288 27.42C136.148 27.42 136.948 27.31 137.688 27.09C138.448 26.85 139.168 26.47 139.848 25.95L140.958 28.47C140.238 29.05 139.378 29.5 138.378 29.82C137.378 30.14 136.318 30.3 135.198 30.3ZM144.313 30V18.63C144.313 18.01 144.293 17.38 144.253 16.74C144.213 16.1 144.153 15.47 144.073 14.85H147.703L148.003 17.85H147.643C148.123 16.79 148.833 15.98 149.773 15.42C150.713 14.84 151.803 14.55 153.043 14.55C154.823 14.55 156.163 15.05 157.063 16.05C157.963 17.05 158.413 18.61 158.413 20.73V30H154.663V20.91C154.663 19.69 154.423 18.82 153.943 18.3C153.483 17.76 152.783 17.49 151.843 17.49C150.683 17.49 149.763 17.85 149.083 18.57C148.403 19.29 148.063 20.25 148.063 21.45V30H144.313ZM168.27 30.3C166.95 30.3 165.78 29.99 164.76 29.37C163.76 28.73 162.98 27.82 162.42 26.64C161.86 25.46 161.58 24.05 161.58 22.41C161.58 20.77 161.86 19.37 162.42 18.21C162.98 17.03 163.76 16.13 164.76 15.51C165.78 14.87 166.95 14.55 168.27 14.55C169.53 14.55 170.64 14.86 171.6 15.48C172.58 16.08 173.23 16.9 173.55 17.94H173.16V7.92H176.91V30H173.22V26.79H173.58C173.26 27.87 172.61 28.73 171.63 29.37C170.67 29.99 169.55 30.3 168.27 30.3ZM169.32 27.42C170.5 27.42 171.45 27.01 172.17 26.19C172.89 25.35 173.25 24.09 173.25 22.41C173.25 20.73 172.89 19.48 172.17 18.66C171.45 17.84 170.5 17.43 169.32 17.43C168.14 17.43 167.18 17.84 166.44 18.66C165.72 19.48 165.36 20.73 165.36 22.41C165.36 24.09 165.72 25.35 166.44 26.19C167.18 27.01 168.14 27.42 169.32 27.42Z" fill="#7DBCD1"/>
<defs>
<linearGradient id="paint0_linear_4186_6910" x1="0.238439" y1="19.0015" x2="30.2366" y2="19.0015" gradientUnits="userSpaceOnUse">
<stop stop-color="#9292BE"/>
<stop offset="0.161257" stop-color="#9292BE"/>
<stop offset="1" stop-color="#75C8D6"/>
</linearGradient>
</defs>
</svg>
