<svg width="39" height="32" viewBox="0 0 39 32" fill="none" xmlns="http://www.w3.org/2000/svg">
<g id="&#240;&#159;&#166;&#134; icon &#34;Envelope&#34;">
<path id="Vector" d="M35.3438 0.289062H3.65625C1.63693 0.289062 0 2.02393 0 4.16406V27.4141C0 29.5542 1.63693 31.2891 3.65625 31.2891H35.3438C37.3631 31.2891 39 29.5542 39 27.4141V4.16406C39 2.02393 37.3631 0.289062 35.3438 0.289062ZM35.3438 4.16406V7.45822C33.6358 8.93225 30.913 11.2243 25.092 16.0551C23.8092 17.1245 21.2681 19.6937 19.5 19.6637C17.7322 19.694 15.1903 17.1241 13.908 16.0551C8.08793 11.225 5.3644 8.93249 3.65625 7.45822V4.16406H35.3438ZM3.65625 27.4141V12.4306C5.40165 13.904 7.87686 15.9715 11.6496 19.1025C13.3145 20.4915 16.2301 23.5576 19.5 23.539C22.7538 23.5576 25.6325 20.5359 27.3497 19.1032C31.1224 15.9722 33.5983 13.9041 35.3438 12.4306V27.4141H3.65625Z" fill="white"/>
</g>
</svg>
