<svg width="51" height="39" viewBox="0 0 51 39" fill="none" xmlns="http://www.w3.org/2000/svg">
<g id="image">
<path id="Vector" d="M40.375 4.875H10.625C8.27779 4.875 6.375 6.33007 6.375 8.125V30.875C6.375 32.6699 8.27779 34.125 10.625 34.125H40.375C42.7222 34.125 44.625 32.6699 44.625 30.875V8.125C44.625 6.33007 42.7222 4.875 40.375 4.875Z" stroke="#9AB3F5" stroke-width="2" stroke-linecap="round" stroke-linejoin="round"/>
<path id="Vector_2" d="M18.0625 16.25C19.8229 16.25 21.25 15.1587 21.25 13.8125C21.25 12.4663 19.8229 11.375 18.0625 11.375C16.3021 11.375 14.875 12.4663 14.875 13.8125C14.875 15.1587 16.3021 16.25 18.0625 16.25Z" stroke="#9AB3F5" stroke-width="2" stroke-linecap="round" stroke-linejoin="round"/>
<path id="Vector_3" d="M44.625 24.375L34 16.25L10.625 34.125" stroke="#9AB3F5" stroke-width="2" stroke-linecap="round" stroke-linejoin="round"/>
</g>
</svg>
