<svg width="125" height="93" viewBox="0 0 125 93" fill="none" xmlns="http://www.w3.org/2000/svg">
<g id="ion:image-outline">
<path id="Vector" d="M87.5 15.7129H37.5C33.3579 15.7129 30 19.4981 30 24.1674V69.2583C30 73.9277 33.3579 77.7129 37.5 77.7129H87.5C91.6421 77.7129 95 73.9277 95 69.2583V24.1674C95 19.4981 91.6421 15.7129 87.5 15.7129Z" stroke="#999999" stroke-width="3.125" stroke-linejoin="round"/>
<path id="Vector_2" d="M76.6424 39.9959C79.7586 39.9959 82.2847 37.4701 82.2847 34.3544C82.2847 31.2387 79.7586 28.7129 76.6424 28.7129C73.5262 28.7129 71 31.2387 71 34.3544C71 37.4701 73.5262 39.9959 76.6424 39.9959Z" stroke="#999999" stroke-width="3.125" stroke-miterlimit="10"/>
<path id="Vector_3" d="M70 61.0294L55.8344 45.3377C54.933 44.3376 53.7214 43.7572 52.4473 43.7153C51.1733 43.6734 49.9329 44.1731 48.9797 45.1123L30 63.8403M57.5 77.7129L76.7719 56.3248C77.6532 55.3447 78.8329 54.7657 80.0792 54.7016C81.3256 54.6374 82.5485 55.0927 83.5078 55.978L95 66.6148" stroke="#999999" stroke-width="3.125" stroke-linecap="round" stroke-linejoin="round"/>
</g>
</svg>
