<svg width="57" height="56" viewBox="0 0 57 56" fill="none" xmlns="http://www.w3.org/2000/svg">
<g id="insta">
<ellipse id="Ellipse 19" cx="28.5" cy="27.7891" rx="28.5" ry="27.5" fill="#A7A7A7" fill-opacity="0.3"/>
<g id="&#240;&#159;&#166;&#134; icon &#34;Instagram&#34;">
<path id="Vector" d="M28.5041 18.0591C23.2544 18.0591 19.0199 22.1801 19.0199 27.2891C19.0199 32.3981 23.2544 36.519 28.5041 36.519C33.7539 36.519 37.9883 32.3981 37.9883 27.2891C37.9883 22.1801 33.7539 18.0591 28.5041 18.0591ZM28.5041 33.2897C25.1116 33.2897 22.3381 30.5987 22.3381 27.2891C22.3381 23.9795 25.1033 21.2884 28.5041 21.2884C31.9049 21.2884 34.6701 23.9795 34.6701 27.2891C34.6701 30.5987 31.8967 33.2897 28.5041 33.2897ZM40.5885 17.6816C40.5885 18.8785 39.5979 19.8344 38.3763 19.8344C37.1464 19.8344 36.1641 18.8705 36.1641 17.6816C36.1641 16.4927 37.1547 15.5287 38.3763 15.5287C39.5979 15.5287 40.5885 16.4927 40.5885 17.6816ZM46.87 19.8665C46.7297 16.9827 46.0528 14.4282 43.8819 12.3235C41.7193 10.2189 39.0944 9.56018 36.1311 9.41558C33.077 9.24689 23.923 9.24689 20.8689 9.41558C17.9138 9.55214 15.289 10.2109 13.1181 12.3155C10.9472 14.4202 10.2786 16.9747 10.13 19.8585C9.95666 22.8307 9.95666 31.7394 10.13 34.7116C10.2703 37.5954 10.9472 40.1499 13.1181 42.2546C15.289 44.3592 17.9056 45.0179 20.8689 45.1625C23.923 45.3312 33.077 45.3312 36.1311 45.1625C39.0944 45.026 41.7193 44.3673 43.8819 42.2546C46.0446 40.1499 46.7214 37.5954 46.87 34.7116C47.0433 31.7394 47.0433 22.8388 46.87 19.8665ZM42.9244 37.9007C42.2806 39.4752 41.0342 40.6881 39.4081 41.3228C36.9731 42.2626 31.195 42.0457 28.5041 42.0457C25.8132 42.0457 20.0269 42.2546 17.6002 41.3228C15.9823 40.6962 14.7359 39.4832 14.0838 37.9007C13.1181 35.5309 13.3409 29.9078 13.3409 27.2891C13.3409 24.6703 13.1263 19.0391 14.0838 16.6774C14.7277 15.103 15.9741 13.89 17.6002 13.2554C20.0352 12.3155 25.8132 12.5324 28.5041 12.5324C31.195 12.5324 36.9813 12.3235 39.4081 13.2554C41.0259 13.8819 42.2723 15.0949 42.9244 16.6774C43.8902 19.0472 43.6673 24.6703 43.6673 27.2891C43.6673 29.9078 43.8902 35.539 42.9244 37.9007Z" fill="white"/>
</g>
</g>
</svg>
