<svg width="34" height="44" viewBox="0 0 34 44" fill="none" xmlns="http://www.w3.org/2000/svg">
<g id="&#240;&#159;&#166;&#134; icon &#34;Alternate Map Marker&#34;">
<path id="Vector" d="M14.9696 42.8454C2.42928 24.8556 0.101562 23.0093 0.101562 16.3979C0.101562 7.34154 7.52065 0 16.6726 0C25.8246 0 33.2437 7.34154 33.2437 16.3979C33.2437 23.0093 30.916 24.8556 18.3757 42.8454C17.5527 44.0217 15.7925 44.0217 14.9696 42.8454ZM16.6726 23.2303C20.486 23.2303 23.5772 20.1713 23.5772 16.3979C23.5772 12.6244 20.486 9.56541 16.6726 9.56541C12.8593 9.56541 9.76802 12.6244 9.76802 16.3979C9.76802 20.1713 12.8593 23.2303 16.6726 23.2303Z" fill="white"/>
</g>
</svg>
