<svg width="32" height="19" viewBox="0 0 32 19" fill="none" xmlns="http://www.w3.org/2000/svg">
<path d="M30.4 0H1.6C0.7165 0 0 0.706255 0 1.57712V17.3484C0 18.2192 0.7165 18.9255 1.6 18.9255H30.4C31.2835 18.9255 32 18.2192 32 17.3484V1.57712C32 0.706255 31.2835 0 30.4 0ZM2.4 16.5598V13.4055C4.1675 13.4055 5.6 14.8176 5.6 16.5598H2.4ZM2.4 5.51993V2.36568H5.6C5.6 4.10791 4.1675 5.51993 2.4 5.51993ZM16 14.1941C13.7905 14.1941 12 12.0753 12 9.46274C12 6.84964 13.791 4.73137 16 4.73137C18.209 4.73137 20 6.84964 20 9.46274C20 12.0763 18.2085 14.1941 16 14.1941ZM29.6 16.5598H26.4C26.4 14.8176 27.8325 13.4055 29.6 13.4055V16.5598ZM29.6 5.51993C27.8325 5.51993 26.4 4.10791 26.4 2.36568H29.6V5.51993Z" fill="black" fill-opacity="0.6"/>
</svg>
