<svg width="25" height="25" viewBox="0 0 25 25" fill="none" xmlns="http://www.w3.org/2000/svg">
<g id="&#240;&#159;&#166;&#134; icon &#34;Alternate Phone&#34;">
<path id="Vector" d="M24.287 17.3847L18.8182 15.178C18.5846 15.0842 18.3249 15.0645 18.0783 15.1217C17.8318 15.1789 17.6116 15.31 17.451 15.4952L15.0291 18.2812C11.2281 16.5938 8.16919 13.7138 6.37706 10.1351L9.3361 7.85487C9.53321 7.70393 9.67272 7.49664 9.73352 7.26437C9.79431 7.0321 9.77307 6.78751 9.67302 6.56762L7.32923 1.41861C7.21942 1.18157 7.0252 0.988044 6.78007 0.871388C6.53494 0.754732 6.25426 0.722263 5.98643 0.77958L0.908219 1.88294C0.649996 1.93908 0.419609 2.07597 0.25466 2.27127C0.0897111 2.46657 -5.94839e-05 2.70874 2.95718e-08 2.95826C2.95718e-08 14.7504 10.1515 24.2899 22.6566 24.2899C22.9217 24.29 23.1791 24.2056 23.3866 24.0502C23.5941 23.8949 23.7396 23.678 23.7992 23.4348L24.9711 18.6535C25.0316 18.4001 24.9964 18.1348 24.8715 17.9032C24.7467 17.6716 24.54 17.4883 24.287 17.3847Z" fill="white"/>
</g>
</svg>
