<svg width="16" height="12" viewBox="0 0 16 12" fill="none" xmlns="http://www.w3.org/2000/svg">
<g id="&#240;&#159;&#166;&#134; icon &#34;Eye&#34;">
<path id="Vector" d="M8 2.35281C7.70559 2.35769 7.41336 2.40721 7.13222 2.49986C7.26227 2.742 7.33151 3.0154 7.33333 3.29394C7.33333 3.51022 7.2931 3.72439 7.21492 3.92421C7.13675 4.12403 7.02217 4.30559 6.87772 4.45852C6.73327 4.61146 6.56179 4.73277 6.37306 4.81554C6.18433 4.89831 5.98205 4.94091 5.77777 4.94091C5.51469 4.93898 5.25647 4.86567 5.02777 4.72798C4.84734 5.39053 4.86837 6.09639 5.08788 6.74559C5.3074 7.39478 5.71428 7.95439 6.25088 8.34515C6.78748 8.73591 7.4266 8.93801 8.07771 8.92282C8.72883 8.90763 9.35892 8.67593 9.87875 8.26052C10.3986 7.84512 10.7818 7.26708 10.9741 6.60828C11.1664 5.94948 11.158 5.24332 10.9502 4.58983C10.7424 3.93634 10.3456 3.36864 9.81613 2.96715C9.28665 2.56566 8.65127 2.35073 8 2.35281ZM15.9033 5.21736C14.397 2.10547 11.4147 0 8 0C4.58527 0 1.60221 2.10694 0.0966517 5.21766C0.0331076 5.35074 0 5.49778 0 5.6469C0 5.79602 0.0331076 5.94306 0.0966517 6.07614C1.60304 9.18803 4.58527 11.2935 8 11.2935C11.4147 11.2935 14.3978 9.18656 15.9033 6.07585C15.9669 5.94276 16 5.79573 16 5.64661C16 5.49748 15.9669 5.35045 15.9033 5.21736ZM8 9.88182C5.25972 9.88182 2.74749 8.26426 1.39082 5.64675C2.74749 3.02925 5.25944 1.41169 8 1.41169C10.7406 1.41169 13.2525 3.02925 14.6092 5.64675C13.2528 8.26426 10.7406 9.88182 8 9.88182Z" fill="#666666" fill-opacity="0.8"/>
</g>
</svg>
