<svg width="57" height="56" viewBox="0 0 57 56" fill="none" xmlns="http://www.w3.org/2000/svg">
<g id="youtube">
<ellipse id="Ellipse 20" cx="28.5" cy="27.7891" rx="28.5" ry="27.5" fill="#A7A7A7" fill-opacity="0.3"/>
<g id="&#240;&#159;&#166;&#134; icon &#34;YouTube&#34;">
<path id="Vector" d="M48.1433 17.1395C47.6717 15.2303 46.2824 13.7266 44.5184 13.2163C41.3211 12.2891 28.5 12.2891 28.5 12.2891C28.5 12.2891 15.679 12.2891 12.4816 13.2163C10.7176 13.7267 9.32827 15.2303 8.85673 17.1395C8 20.6001 8 27.8204 8 27.8204C8 27.8204 8 35.0406 8.85673 38.5013C9.32827 40.4105 10.7176 41.8515 12.4816 42.3618C15.679 43.2891 28.5 43.2891 28.5 43.2891C28.5 43.2891 41.321 43.2891 44.5184 42.3618C46.2824 41.8515 47.6717 40.4105 48.1433 38.5013C49 35.0406 49 27.8204 49 27.8204C49 27.8204 49 20.6001 48.1433 17.1395ZM24.3068 34.3758V21.2649L35.0227 27.8205L24.3068 34.3758Z" fill="white"/>
</g>
</g>
</svg>
